<svg xmlns="http://www.w3.org/2000/svg" xmlns:xlink="http://www.w3.org/1999/xlink" width="614.4" height="460.8" version="1.1" viewBox="0 0 460.8 345.6"><metadata><rdf:RDF xmlns:cc="http://creativecommons.org/ns#" xmlns:dc="http://purl.org/dc/elements/1.1/" xmlns:rdf="http://www.w3.org/1999/02/22-rdf-syntax-ns#"><cc:Work><dc:type rdf:resource="http://purl.org/dc/dcmitype/StillImage"/><dc:date>2022-12-11T16:21:25.366978</dc:date><dc:format>image/svg+xml</dc:format><dc:creator><cc:Agent><dc:title>Matplotlib v3.6.2, https://matplotlib.org/</dc:title></cc:Agent></dc:creator></cc:Work></rdf:RDF></metadata><defs><style type="text/css">*{stroke-linejoin:round;stroke-linecap:butt}</style></defs><g id="figure_1"><g id="patch_1"><path d="M 0 345.6 L 460.8 345.6 L 460.8 0 L 0 0 z" style="fill:#fff"/></g><g id="axes_1"><g id="patch_2"><path d="M 57.6 307.584 L 414.72 307.584 L 414.72 41.472 L 57.6 41.472 z" style="fill:#fff"/></g><g id="matplotlib.axis_1"><g id="xtick_1"><g id="line2d_1"><path d="M 57.6 307.584 L 57.6 41.472" clip-path="url(#p25baeb44e5)" style="fill:none;stroke:#b0b0b0;stroke-width:.8;stroke-linecap:square"/></g><g id="line2d_2"><defs><path id="m458b0263ed" d="M 0 0 L 0 3.5" style="stroke:#000;stroke-width:.8"/></defs><g><use x="57.6" y="307.584" xlink:href="#m458b0263ed" style="stroke:#000;stroke-width:.8"/></g></g><g id="text_1"><g transform="translate(54.41875 322.182437) scale(0.1 -0.1)"><defs><path id="DejaVuSans-30" d="M 2034 4250 Q 1547 4250 1301 3770 Q 1056 3291 1056 2328 Q 1056 1369 1301 889 Q 1547 409 2034 409 Q 2525 409 2770 889 Q 3016 1369 3016 2328 Q 3016 3291 2770 3770 Q 2525 4250 2034 4250 zM 2034 4750 Q 2819 4750 3233 4129 Q 3647 3509 3647 2328 Q 3647 1150 3233 529 Q 2819 -91 2034 -91 Q 1250 -91 836 529 Q 422 1150 422 2328 Q 422 3509 836 4129 Q 1250 4750 2034 4750 z" transform="scale(0.015625)"/></defs><use xlink:href="#DejaVuSans-30"/></g></g></g><g id="xtick_2"><g id="line2d_3"><path d="M 143.653012 307.584 L 143.653012 41.472" clip-path="url(#p25baeb44e5)" style="fill:none;stroke:#b0b0b0;stroke-width:.8;stroke-linecap:square"/></g><g id="line2d_4"><g><use x="143.653" y="307.584" xlink:href="#m458b0263ed" style="stroke:#000;stroke-width:.8"/></g></g><g id="text_2"><g transform="translate(137.290512 322.182437) scale(0.1 -0.1)"><defs><path id="DejaVuSans-36" d="M 2113 2584 Q 1688 2584 1439 2293 Q 1191 2003 1191 1497 Q 1191 994 1439 701 Q 1688 409 2113 409 Q 2538 409 2786 701 Q 3034 994 3034 1497 Q 3034 2003 2786 2293 Q 2538 2584 2113 2584 zM 3366 4563 L 3366 3988 Q 3128 4100 2886 4159 Q 2644 4219 2406 4219 Q 1781 4219 1451 3797 Q 1122 3375 1075 2522 Q 1259 2794 1537 2939 Q 1816 3084 2150 3084 Q 2853 3084 3261 2657 Q 3669 2231 3669 1497 Q 3669 778 3244 343 Q 2819 -91 2113 -91 Q 1303 -91 875 529 Q 447 1150 447 2328 Q 447 3434 972 4092 Q 1497 4750 2381 4750 Q 2619 4750 2861 4703 Q 3103 4656 3366 4563 z" transform="scale(0.015625)"/><path id="DejaVuSans-34" d="M 2419 4116 L 825 1625 L 2419 1625 L 2419 4116 zM 2253 4666 L 3047 4666 L 3047 1625 L 3713 1625 L 3713 1100 L 3047 1100 L 3047 0 L 2419 0 L 2419 1100 L 313 1100 L 313 1709 L 2253 4666 z" transform="scale(0.015625)"/></defs><use xlink:href="#DejaVuSans-36"/><use x="63.623" xlink:href="#DejaVuSans-34"/></g></g></g><g id="xtick_3"><g id="line2d_5"><path d="M 229.706024 307.584 L 229.706024 41.472" clip-path="url(#p25baeb44e5)" style="fill:none;stroke:#b0b0b0;stroke-width:.8;stroke-linecap:square"/></g><g id="line2d_6"><g><use x="229.706" y="307.584" xlink:href="#m458b0263ed" style="stroke:#000;stroke-width:.8"/></g></g><g id="text_3"><g transform="translate(220.162274 322.182437) scale(0.1 -0.1)"><defs><path id="DejaVuSans-31" d="M 794 531 L 1825 531 L 1825 4091 L 703 3866 L 703 4441 L 1819 4666 L 2450 4666 L 2450 531 L 3481 531 L 3481 0 L 794 0 L 794 531 z" transform="scale(0.015625)"/><path id="DejaVuSans-32" d="M 1228 531 L 3431 531 L 3431 0 L 469 0 L 469 531 Q 828 903 1448 1529 Q 2069 2156 2228 2338 Q 2531 2678 2651 2914 Q 2772 3150 2772 3378 Q 2772 3750 2511 3984 Q 2250 4219 1831 4219 Q 1534 4219 1204 4116 Q 875 4013 500 3803 L 500 4441 Q 881 4594 1212 4672 Q 1544 4750 1819 4750 Q 2544 4750 2975 4387 Q 3406 4025 3406 3419 Q 3406 3131 3298 2873 Q 3191 2616 2906 2266 Q 2828 2175 2409 1742 Q 1991 1309 1228 531 z" transform="scale(0.015625)"/><path id="DejaVuSans-38" d="M 2034 2216 Q 1584 2216 1326 1975 Q 1069 1734 1069 1313 Q 1069 891 1326 650 Q 1584 409 2034 409 Q 2484 409 2743 651 Q 3003 894 3003 1313 Q 3003 1734 2745 1975 Q 2488 2216 2034 2216 zM 1403 2484 Q 997 2584 770 2862 Q 544 3141 544 3541 Q 544 4100 942 4425 Q 1341 4750 2034 4750 Q 2731 4750 3128 4425 Q 3525 4100 3525 3541 Q 3525 3141 3298 2862 Q 3072 2584 2669 2484 Q 3125 2378 3379 2068 Q 3634 1759 3634 1313 Q 3634 634 3220 271 Q 2806 -91 2034 -91 Q 1263 -91 848 271 Q 434 634 434 1313 Q 434 1759 690 2068 Q 947 2378 1403 2484 zM 1172 3481 Q 1172 3119 1398 2916 Q 1625 2713 2034 2713 Q 2441 2713 2670 2916 Q 2900 3119 2900 3481 Q 2900 3844 2670 4047 Q 2441 4250 2034 4250 Q 1625 4250 1398 4047 Q 1172 3844 1172 3481 z" transform="scale(0.015625)"/></defs><use xlink:href="#DejaVuSans-31"/><use x="63.623" xlink:href="#DejaVuSans-32"/><use x="127.246" xlink:href="#DejaVuSans-38"/></g></g></g><g id="xtick_4"><g id="line2d_7"><path d="M 315.759036 307.584 L 315.759036 41.472" clip-path="url(#p25baeb44e5)" style="fill:none;stroke:#b0b0b0;stroke-width:.8;stroke-linecap:square"/></g><g id="line2d_8"><g><use x="315.759" y="307.584" xlink:href="#m458b0263ed" style="stroke:#000;stroke-width:.8"/></g></g><g id="text_4"><g transform="translate(306.215286 322.182437) scale(0.1 -0.1)"><defs><path id="DejaVuSans-39" d="M 703 97 L 703 672 Q 941 559 1184 500 Q 1428 441 1663 441 Q 2288 441 2617 861 Q 2947 1281 2994 2138 Q 2813 1869 2534 1725 Q 2256 1581 1919 1581 Q 1219 1581 811 2004 Q 403 2428 403 3163 Q 403 3881 828 4315 Q 1253 4750 1959 4750 Q 2769 4750 3195 4129 Q 3622 3509 3622 2328 Q 3622 1225 3098 567 Q 2575 -91 1691 -91 Q 1453 -91 1209 -44 Q 966 3 703 97 zM 1959 2075 Q 2384 2075 2632 2365 Q 2881 2656 2881 3163 Q 2881 3666 2632 3958 Q 2384 4250 1959 4250 Q 1534 4250 1286 3958 Q 1038 3666 1038 3163 Q 1038 2656 1286 2365 Q 1534 2075 1959 2075 z" transform="scale(0.015625)"/></defs><use xlink:href="#DejaVuSans-31"/><use x="63.623" xlink:href="#DejaVuSans-39"/><use x="127.246" xlink:href="#DejaVuSans-32"/></g></g></g><g id="xtick_5"><g id="line2d_9"><path d="M 401.812048 307.584 L 401.812048 41.472" clip-path="url(#p25baeb44e5)" style="fill:none;stroke:#b0b0b0;stroke-width:.8;stroke-linecap:square"/></g><g id="line2d_10"><g><use x="401.812" y="307.584" xlink:href="#m458b0263ed" style="stroke:#000;stroke-width:.8"/></g></g><g id="text_5"><g transform="translate(392.268298 322.182437) scale(0.1 -0.1)"><defs><path id="DejaVuSans-35" d="M 691 4666 L 3169 4666 L 3169 4134 L 1269 4134 L 1269 2991 Q 1406 3038 1543 3061 Q 1681 3084 1819 3084 Q 2600 3084 3056 2656 Q 3513 2228 3513 1497 Q 3513 744 3044 326 Q 2575 -91 1722 -91 Q 1428 -91 1123 -41 Q 819 9 494 109 L 494 744 Q 775 591 1075 516 Q 1375 441 1709 441 Q 2250 441 2565 725 Q 2881 1009 2881 1497 Q 2881 1984 2565 2268 Q 2250 2553 1709 2553 Q 1456 2553 1204 2497 Q 953 2441 691 2322 L 691 4666 z" transform="scale(0.015625)"/></defs><use xlink:href="#DejaVuSans-32"/><use x="63.623" xlink:href="#DejaVuSans-35"/><use x="127.246" xlink:href="#DejaVuSans-36"/></g></g></g><g id="text_6"><g transform="translate(166.095937 335.860562) scale(0.1 -0.1)"><defs><path id="DejaVuSans-73" d="M 2834 3397 L 2834 2853 Q 2591 2978 2328 3040 Q 2066 3103 1784 3103 Q 1356 3103 1142 2972 Q 928 2841 928 2578 Q 928 2378 1081 2264 Q 1234 2150 1697 2047 L 1894 2003 Q 2506 1872 2764 1633 Q 3022 1394 3022 966 Q 3022 478 2636 193 Q 2250 -91 1575 -91 Q 1294 -91 989 -36 Q 684 19 347 128 L 347 722 Q 666 556 975 473 Q 1284 391 1588 391 Q 1994 391 2212 530 Q 2431 669 2431 922 Q 2431 1156 2273 1281 Q 2116 1406 1581 1522 L 1381 1569 Q 847 1681 609 1914 Q 372 2147 372 2553 Q 372 3047 722 3315 Q 1072 3584 1716 3584 Q 2034 3584 2315 3537 Q 2597 3491 2834 3397 z" transform="scale(0.015625)"/><path id="DejaVuSans-74" d="M 1172 4494 L 1172 3500 L 2356 3500 L 2356 3053 L 1172 3053 L 1172 1153 Q 1172 725 1289 603 Q 1406 481 1766 481 L 2356 481 L 2356 0 L 1766 0 Q 1100 0 847 248 Q 594 497 594 1153 L 594 3053 L 172 3053 L 172 3500 L 594 3500 L 594 4494 L 1172 4494 z" transform="scale(0.015625)"/><path id="DejaVuSans-72" d="M 2631 2963 Q 2534 3019 2420 3045 Q 2306 3072 2169 3072 Q 1681 3072 1420 2755 Q 1159 2438 1159 1844 L 1159 0 L 581 0 L 581 3500 L 1159 3500 L 1159 2956 Q 1341 3275 1631 3429 Q 1922 3584 2338 3584 Q 2397 3584 2469 3576 Q 2541 3569 2628 3553 L 2631 2963 z" transform="scale(0.015625)"/><path id="DejaVuSans-69" d="M 603 3500 L 1178 3500 L 1178 0 L 603 0 L 603 3500 zM 603 4863 L 1178 4863 L 1178 4134 L 603 4134 L 603 4863 z" transform="scale(0.015625)"/><path id="DejaVuSans-6e" d="M 3513 2113 L 3513 0 L 2938 0 L 2938 2094 Q 2938 2591 2744 2837 Q 2550 3084 2163 3084 Q 1697 3084 1428 2787 Q 1159 2491 1159 1978 L 1159 0 L 581 0 L 581 3500 L 1159 3500 L 1159 2956 Q 1366 3272 1645 3428 Q 1925 3584 2291 3584 Q 2894 3584 3203 3211 Q 3513 2838 3513 2113 z" transform="scale(0.015625)"/><path id="DejaVuSans-67" d="M 2906 1791 Q 2906 2416 2648 2759 Q 2391 3103 1925 3103 Q 1463 3103 1205 2759 Q 947 2416 947 1791 Q 947 1169 1205 825 Q 1463 481 1925 481 Q 2391 481 2648 825 Q 2906 1169 2906 1791 zM 3481 434 Q 3481 -459 3084 -895 Q 2688 -1331 1869 -1331 Q 1566 -1331 1297 -1286 Q 1028 -1241 775 -1147 L 775 -588 Q 1028 -725 1275 -790 Q 1522 -856 1778 -856 Q 2344 -856 2625 -561 Q 2906 -266 2906 331 L 2906 616 Q 2728 306 2450 153 Q 2172 0 1784 0 Q 1141 0 747 490 Q 353 981 353 1791 Q 353 2603 747 3093 Q 1141 3584 1784 3584 Q 2172 3584 2450 3431 Q 2728 3278 2906 2969 L 2906 3500 L 3481 3500 L 3481 434 z" transform="scale(0.015625)"/><path id="DejaVuSans-20" transform="scale(0.015625)"/><path id="DejaVuSans-6c" d="M 603 4863 L 1178 4863 L 1178 0 L 603 0 L 603 4863 z" transform="scale(0.015625)"/><path id="DejaVuSans-65" d="M 3597 1894 L 3597 1613 L 953 1613 Q 991 1019 1311 708 Q 1631 397 2203 397 Q 2534 397 2845 478 Q 3156 559 3463 722 L 3463 178 Q 3153 47 2828 -22 Q 2503 -91 2169 -91 Q 1331 -91 842 396 Q 353 884 353 1716 Q 353 2575 817 3079 Q 1281 3584 2069 3584 Q 2775 3584 3186 3129 Q 3597 2675 3597 1894 zM 3022 2063 Q 3016 2534 2758 2815 Q 2500 3097 2075 3097 Q 1594 3097 1305 2825 Q 1016 2553 972 2059 L 3022 2063 z" transform="scale(0.015625)"/><path id="DejaVuSans-68" d="M 3513 2113 L 3513 0 L 2938 0 L 2938 2094 Q 2938 2591 2744 2837 Q 2550 3084 2163 3084 Q 1697 3084 1428 2787 Q 1159 2491 1159 1978 L 1159 0 L 581 0 L 581 4863 L 1159 4863 L 1159 2956 Q 1366 3272 1645 3428 Q 1925 3584 2291 3584 Q 2894 3584 3203 3211 Q 3513 2838 3513 2113 z" transform="scale(0.015625)"/><path id="DejaVuSans-5b" d="M 550 4863 L 1875 4863 L 1875 4416 L 1125 4416 L 1125 -397 L 1875 -397 L 1875 -844 L 550 -844 L 550 4863 z" transform="scale(0.015625)"/><path id="DejaVuSans-63" d="M 3122 3366 L 3122 2828 Q 2878 2963 2633 3030 Q 2388 3097 2138 3097 Q 1578 3097 1268 2742 Q 959 2388 959 1747 Q 959 1106 1268 751 Q 1578 397 2138 397 Q 2388 397 2633 464 Q 2878 531 3122 666 L 3122 134 Q 2881 22 2623 -34 Q 2366 -91 2075 -91 Q 1284 -91 818 406 Q 353 903 353 1747 Q 353 2603 823 3093 Q 1294 3584 2113 3584 Q 2378 3584 2631 3529 Q 2884 3475 3122 3366 z" transform="scale(0.015625)"/><path id="DejaVuSans-61" d="M 2194 1759 Q 1497 1759 1228 1600 Q 959 1441 959 1056 Q 959 750 1161 570 Q 1363 391 1709 391 Q 2188 391 2477 730 Q 2766 1069 2766 1631 L 2766 1759 L 2194 1759 zM 3341 1997 L 3341 0 L 2766 0 L 2766 531 Q 2569 213 2275 61 Q 1981 -91 1556 -91 Q 1019 -91 701 211 Q 384 513 384 1019 Q 384 1609 779 1909 Q 1175 2209 1959 2209 L 2766 2209 L 2766 2266 Q 2766 2663 2505 2880 Q 2244 3097 1772 3097 Q 1472 3097 1187 3025 Q 903 2953 641 2809 L 641 3341 Q 956 3463 1253 3523 Q 1550 3584 1831 3584 Q 2591 3584 2966 3190 Q 3341 2797 3341 1997 z" transform="scale(0.015625)"/><path id="DejaVuSans-5d" d="M 1947 4863 L 1947 -844 L 622 -844 L 622 -397 L 1369 -397 L 1369 4416 L 622 4416 L 622 4863 L 1947 4863 z" transform="scale(0.015625)"/></defs><use xlink:href="#DejaVuSans-73"/><use x="52.1" xlink:href="#DejaVuSans-74"/><use x="91.309" xlink:href="#DejaVuSans-72"/><use x="132.422" xlink:href="#DejaVuSans-69"/><use x="160.205" xlink:href="#DejaVuSans-6e"/><use x="223.584" xlink:href="#DejaVuSans-67"/><use x="287.061" xlink:href="#DejaVuSans-20"/><use x="318.848" xlink:href="#DejaVuSans-6c"/><use x="346.631" xlink:href="#DejaVuSans-65"/><use x="408.154" xlink:href="#DejaVuSans-6e"/><use x="471.533" xlink:href="#DejaVuSans-67"/><use x="535.01" xlink:href="#DejaVuSans-74"/><use x="574.219" xlink:href="#DejaVuSans-68"/><use x="637.598" xlink:href="#DejaVuSans-20"/><use x="669.385" xlink:href="#DejaVuSans-5b"/><use x="708.398" xlink:href="#DejaVuSans-69"/><use x="736.182" xlink:href="#DejaVuSans-6e"/><use x="799.561" xlink:href="#DejaVuSans-20"/><use x="831.348" xlink:href="#DejaVuSans-63"/><use x="886.328" xlink:href="#DejaVuSans-68"/><use x="949.707" xlink:href="#DejaVuSans-61"/><use x="1010.986" xlink:href="#DejaVuSans-72"/><use x="1052.1" xlink:href="#DejaVuSans-61"/><use x="1113.379" xlink:href="#DejaVuSans-63"/><use x="1168.359" xlink:href="#DejaVuSans-74"/><use x="1207.568" xlink:href="#DejaVuSans-65"/><use x="1269.092" xlink:href="#DejaVuSans-72"/><use x="1310.205" xlink:href="#DejaVuSans-73"/><use x="1362.305" xlink:href="#DejaVuSans-5d"/></g></g></g><g id="matplotlib.axis_2"><g id="ytick_1"><g id="line2d_11"><path d="M 57.6 307.584 L 414.72 307.584" clip-path="url(#p25baeb44e5)" style="fill:none;stroke:#b0b0b0;stroke-width:.8;stroke-linecap:square"/></g><g id="line2d_12"><defs><path id="m46062065b5" d="M 0 0 L -3.5 0" style="stroke:#000;stroke-width:.8"/></defs><g><use x="57.6" y="307.584" xlink:href="#m46062065b5" style="stroke:#000;stroke-width:.8"/></g></g><g id="text_7"><g transform="translate(44.2375 311.383219) scale(0.1 -0.1)"><use xlink:href="#DejaVuSans-30"/></g></g></g><g id="ytick_2"><g id="line2d_13"><path d="M 57.6 260.571697 L 414.72 260.571697" clip-path="url(#p25baeb44e5)" style="fill:none;stroke:#b0b0b0;stroke-width:.8;stroke-linecap:square"/></g><g id="line2d_14"><g><use x="57.6" y="260.572" xlink:href="#m46062065b5" style="stroke:#000;stroke-width:.8"/></g></g><g id="text_8"><g transform="translate(44.2375 264.370916) scale(0.1 -0.1)"><use xlink:href="#DejaVuSans-32"/></g></g></g><g id="ytick_3"><g id="line2d_15"><path d="M 57.6 213.559394 L 414.72 213.559394" clip-path="url(#p25baeb44e5)" style="fill:none;stroke:#b0b0b0;stroke-width:.8;stroke-linecap:square"/></g><g id="line2d_16"><g><use x="57.6" y="213.559" xlink:href="#m46062065b5" style="stroke:#000;stroke-width:.8"/></g></g><g id="text_9"><g transform="translate(44.2375 217.358612) scale(0.1 -0.1)"><use xlink:href="#DejaVuSans-34"/></g></g></g><g id="ytick_4"><g id="line2d_17"><path d="M 57.6 166.54709 L 414.72 166.54709" clip-path="url(#p25baeb44e5)" style="fill:none;stroke:#b0b0b0;stroke-width:.8;stroke-linecap:square"/></g><g id="line2d_18"><g><use x="57.6" y="166.547" xlink:href="#m46062065b5" style="stroke:#000;stroke-width:.8"/></g></g><g id="text_10"><g transform="translate(44.2375 170.346309) scale(0.1 -0.1)"><use xlink:href="#DejaVuSans-36"/></g></g></g><g id="ytick_5"><g id="line2d_19"><path d="M 57.6 119.534787 L 414.72 119.534787" clip-path="url(#p25baeb44e5)" style="fill:none;stroke:#b0b0b0;stroke-width:.8;stroke-linecap:square"/></g><g id="line2d_20"><g><use x="57.6" y="119.535" xlink:href="#m46062065b5" style="stroke:#000;stroke-width:.8"/></g></g><g id="text_11"><g transform="translate(44.2375 123.334006) scale(0.1 -0.1)"><use xlink:href="#DejaVuSans-38"/></g></g></g><g id="ytick_6"><g id="line2d_21"><path d="M 57.6 72.522484 L 414.72 72.522484" clip-path="url(#p25baeb44e5)" style="fill:none;stroke:#b0b0b0;stroke-width:.8;stroke-linecap:square"/></g><g id="line2d_22"><g><use x="57.6" y="72.522" xlink:href="#m46062065b5" style="stroke:#000;stroke-width:.8"/></g></g><g id="text_12"><g transform="translate(37.875 76.321703) scale(0.1 -0.1)"><use xlink:href="#DejaVuSans-31"/><use x="63.623" xlink:href="#DejaVuSans-30"/></g></g></g><g id="text_13"><g transform="translate(31.795312 205.493625) rotate(-90) scale(0.1 -0.1)"><defs><path id="DejaVuSans-75" d="M 544 1381 L 544 3500 L 1119 3500 L 1119 1403 Q 1119 906 1312 657 Q 1506 409 1894 409 Q 2359 409 2629 706 Q 2900 1003 2900 1516 L 2900 3500 L 3475 3500 L 3475 0 L 2900 0 L 2900 538 Q 2691 219 2414 64 Q 2138 -91 1772 -91 Q 1169 -91 856 284 Q 544 659 544 1381 zM 1991 3584 L 1991 3584 z" transform="scale(0.015625)"/><path id="DejaVuSans-6d" d="M 3328 2828 Q 3544 3216 3844 3400 Q 4144 3584 4550 3584 Q 5097 3584 5394 3201 Q 5691 2819 5691 2113 L 5691 0 L 5113 0 L 5113 2094 Q 5113 2597 4934 2840 Q 4756 3084 4391 3084 Q 3944 3084 3684 2787 Q 3425 2491 3425 1978 L 3425 0 L 2847 0 L 2847 2094 Q 2847 2600 2669 2842 Q 2491 3084 2119 3084 Q 1678 3084 1418 2786 Q 1159 2488 1159 1978 L 1159 0 L 581 0 L 581 3500 L 1159 3500 L 1159 2956 Q 1356 3278 1631 3431 Q 1906 3584 2284 3584 Q 2666 3584 2933 3390 Q 3200 3197 3328 2828 z" transform="scale(0.015625)"/><path id="DejaVuSans-3bc" d="M 544 -1331 L 544 3500 L 1119 3500 L 1119 1325 Q 1119 872 1334 640 Q 1550 409 1972 409 Q 2434 409 2667 671 Q 2900 934 2900 1459 L 2900 3500 L 3475 3500 L 3475 806 Q 3475 619 3529 530 Q 3584 441 3700 441 Q 3728 441 3778 458 Q 3828 475 3916 513 L 3916 50 Q 3788 -22 3673 -56 Q 3559 -91 3450 -91 Q 3234 -91 3106 31 Q 2978 153 2931 403 Q 2775 156 2548 32 Q 2322 -91 2016 -91 Q 1697 -91 1473 31 Q 1250 153 1119 397 L 1119 -1331 L 544 -1331 z" transform="scale(0.015625)"/></defs><use xlink:href="#DejaVuSans-72"/><use x="41.113" xlink:href="#DejaVuSans-75"/><use x="104.492" xlink:href="#DejaVuSans-6e"/><use x="167.871" xlink:href="#DejaVuSans-74"/><use x="207.08" xlink:href="#DejaVuSans-69"/><use x="234.863" xlink:href="#DejaVuSans-6d"/><use x="332.275" xlink:href="#DejaVuSans-65"/><use x="393.799" xlink:href="#DejaVuSans-20"/><use x="425.586" xlink:href="#DejaVuSans-5b"/><use x="464.6" xlink:href="#DejaVuSans-3bc"/><use x="528.223" xlink:href="#DejaVuSans-73"/><use x="580.322" xlink:href="#DejaVuSans-5d"/></g></g></g><g id="line2d_23"><path d="M 58.944578 305.742017 L 64.322892 304.926089 L 69.701205 304.679833 L 75.079518 304.392535 L 80.457831 304.289107 L 85.836145 304.00017 L 91.214458 303.896743 L 96.592771 303.701377 L 101.971084 303.535571 L 107.349398 303.272895 L 112.727711 303.089024 L 118.106024 302.847693 L 123.484337 302.718003 L 128.862651 302.358471 L 134.240964 302.195938 L 139.619277 301.910285 L 144.99759 290.352722 L 150.375904 288.80131 L 155.754217 287.742416 L 161.13253 286.534124 L 166.510843 285.586861 L 171.889157 284.44096 L 177.26747 283.424742 L 182.645783 282.33958 L 188.024096 281.30531 L 193.40241 280.371187 L 198.780723 279.54541 L 204.159036 278.322344 L 209.537349 277.508061 L 214.915663 276.498413 L 220.293976 275.738307 L 225.672289 274.533299 L 231.050602 269.348812 L 236.428916 267.963218 L 241.807229 267.193256 L 247.185542 265.899595 L 252.563855 264.791451 L 257.942169 263.865532 L 263.320482 262.872303 L 268.698795 261.67879 L 274.077108 260.836594 L 279.455422 259.909035 L 284.833735 258.891183 L 290.212048 257.906164 L 295.590361 257.180529 L 300.968675 256.036267 L 306.346988 255.161239 L 311.725301 254.225471 L 317.103614 248.522208 L 322.481928 247.290933 L 327.860241 246.131891 L 333.238554 244.741373 L 338.616867 243.739935 L 343.995181 242.546422 L 349.373494 241.354548 L 354.751807 240.348179 L 360.13012 239.090641 L 365.508434 237.957868 L 370.886747 237.048362 L 376.26506 236.010812 L 381.643373 235.102952 L 387.021687 233.876601 L 392.4 232.870238 L 397.778313 231.885218" clip-path="url(#p25baeb44e5)" style="fill:none;stroke:#1f77b4;stroke-width:1.5;stroke-linecap:square"/></g><g id="line2d_24"><path d="M 58.944578 304.449995 L 64.322892 304.272694 L 69.701205 303.524076 L 75.079518 302.076097 L 80.457831 299.859802 L 85.836145 296.499245 L 91.214458 291.912331 L 96.592771 286.983949 L 101.971084 281.379189 L 107.349398 275.35907 L 112.727711 269.118968 L 118.106024 262.427402 L 123.484337 255.006921 L 128.862651 246.941243 L 134.240964 239.146457 L 139.619277 230.37486 L 144.99759 220.898966 L 150.375904 211.5856 L 155.754217 201.917631 L 161.13253 191.617606 L 166.510843 181.315941 L 171.889157 171.221124 L 177.26747 160.536944 L 182.645783 149.782168 L 188.024096 138.80412 L 193.40241 127.292517 L 198.780723 115.162003 L 204.159036 103.435336 L 209.537349 91.592114 L 214.915663 78.360019 L 220.293976 66.429778 L 225.672289 54.056287" clip-path="url(#p25baeb44e5)" style="fill:none;stroke:#ff7f0e;stroke-width:1.5;stroke-linecap:square"/></g><g id="patch_3"><path d="M 57.6 307.584 L 57.6 41.472" style="fill:none;stroke:#000;stroke-width:.8;stroke-linejoin:miter;stroke-linecap:square"/></g><g id="patch_4"><path d="M 414.72 307.584 L 414.72 41.472" style="fill:none;stroke:#000;stroke-width:.8;stroke-linejoin:miter;stroke-linecap:square"/></g><g id="patch_5"><path d="M 57.6 307.584 L 414.72 307.584" style="fill:none;stroke:#000;stroke-width:.8;stroke-linejoin:miter;stroke-linecap:square"/></g><g id="patch_6"><path d="M 57.6 41.472 L 414.72 41.472" style="fill:none;stroke:#000;stroke-width:.8;stroke-linejoin:miter;stroke-linecap:square"/></g><g id="text_14"><g transform="translate(139.850625 22.034625) scale(0.12 -0.12)"><defs><path id="DejaVuSans-50" d="M 1259 4147 L 1259 2394 L 2053 2394 Q 2494 2394 2734 2622 Q 2975 2850 2975 3272 Q 2975 3691 2734 3919 Q 2494 4147 2053 4147 L 1259 4147 zM 628 4666 L 2053 4666 Q 2838 4666 3239 4311 Q 3641 3956 3641 3272 Q 3641 2581 3239 2228 Q 2838 1875 2053 1875 L 1259 1875 L 1259 0 L 628 0 L 628 4666 z" transform="scale(0.015625)"/><path id="DejaVuSans-66" d="M 2375 4863 L 2375 4384 L 1825 4384 Q 1516 4384 1395 4259 Q 1275 4134 1275 3809 L 1275 3500 L 2222 3500 L 2222 3053 L 1275 3053 L 1275 0 L 697 0 L 697 3053 L 147 3053 L 147 3500 L 697 3500 L 697 3744 Q 697 4328 969 4595 Q 1241 4863 1831 4863 L 2375 4863 z" transform="scale(0.015625)"/><path id="DejaVuSans-6f" d="M 1959 3097 Q 1497 3097 1228 2736 Q 959 2375 959 1747 Q 959 1119 1226 758 Q 1494 397 1959 397 Q 2419 397 2687 759 Q 2956 1122 2956 1747 Q 2956 2369 2687 2733 Q 2419 3097 1959 3097 zM 1959 3584 Q 2709 3584 3137 3096 Q 3566 2609 3566 1747 Q 3566 888 3137 398 Q 2709 -91 1959 -91 Q 1206 -91 779 398 Q 353 888 353 1747 Q 353 2609 779 3096 Q 1206 3584 1959 3584 z" transform="scale(0.015625)"/><path id="DejaVuSans-70" d="M 1159 525 L 1159 -1331 L 581 -1331 L 581 3500 L 1159 3500 L 1159 2969 Q 1341 3281 1617 3432 Q 1894 3584 2278 3584 Q 2916 3584 3314 3078 Q 3713 2572 3713 1747 Q 3713 922 3314 415 Q 2916 -91 2278 -91 Q 1894 -91 1617 61 Q 1341 213 1159 525 zM 3116 1747 Q 3116 2381 2855 2742 Q 2594 3103 2138 3103 Q 1681 3103 1420 2742 Q 1159 2381 1159 1747 Q 1159 1113 1420 752 Q 1681 391 2138 391 Q 2594 391 2855 752 Q 3116 1113 3116 1747 z" transform="scale(0.015625)"/></defs><use xlink:href="#DejaVuSans-50"/><use x="56.678" xlink:href="#DejaVuSans-65"/><use x="118.201" xlink:href="#DejaVuSans-72"/><use x="159.314" xlink:href="#DejaVuSans-66"/><use x="194.52" xlink:href="#DejaVuSans-6f"/><use x="255.701" xlink:href="#DejaVuSans-72"/><use x="295.064" xlink:href="#DejaVuSans-6d"/><use x="392.477" xlink:href="#DejaVuSans-61"/><use x="453.756" xlink:href="#DejaVuSans-6e"/><use x="517.135" xlink:href="#DejaVuSans-63"/><use x="572.115" xlink:href="#DejaVuSans-65"/><use x="633.639" xlink:href="#DejaVuSans-20"/><use x="665.426" xlink:href="#DejaVuSans-63"/><use x="720.406" xlink:href="#DejaVuSans-6f"/><use x="781.588" xlink:href="#DejaVuSans-6d"/><use x="879" xlink:href="#DejaVuSans-70"/><use x="942.477" xlink:href="#DejaVuSans-61"/><use x="1003.756" xlink:href="#DejaVuSans-72"/><use x="1044.869" xlink:href="#DejaVuSans-69"/><use x="1072.652" xlink:href="#DejaVuSans-73"/><use x="1124.752" xlink:href="#DejaVuSans-6f"/><use x="1185.934" xlink:href="#DejaVuSans-6e"/><use x="1249.313" xlink:href="#DejaVuSans-20"/><use x="1281.1" xlink:href="#DejaVuSans-6f"/><use x="1342.281" xlink:href="#DejaVuSans-66"/><use x="1377.486" xlink:href="#DejaVuSans-20"/><use x="1409.273" xlink:href="#DejaVuSans-74"/><use x="1448.482" xlink:href="#DejaVuSans-68"/><use x="1511.861" xlink:href="#DejaVuSans-65"/><use x="1573.385" xlink:href="#DejaVuSans-20"/></g><g transform="translate(134.121562 35.472) scale(0.12 -0.12)"><defs><path id="DejaVuSans-4a" d="M 628 4666 L 1259 4666 L 1259 325 Q 1259 -519 939 -900 Q 619 -1281 -91 -1281 L -331 -1281 L -331 -750 L -134 -750 Q 284 -750 456 -515 Q 628 -281 628 325 L 628 4666 z" transform="scale(0.015625)"/><path id="DejaVuSans-79" d="M 2059 -325 Q 1816 -950 1584 -1140 Q 1353 -1331 966 -1331 L 506 -1331 L 506 -850 L 844 -850 Q 1081 -850 1212 -737 Q 1344 -625 1503 -206 L 1606 56 L 191 3500 L 800 3500 L 1894 763 L 2988 3500 L 3597 3500 L 2059 -325 z" transform="scale(0.015625)"/><path id="DejaVuSans-64" d="M 2906 2969 L 2906 4863 L 3481 4863 L 3481 0 L 2906 0 L 2906 525 Q 2725 213 2448 61 Q 2172 -91 1784 -91 Q 1150 -91 751 415 Q 353 922 353 1747 Q 353 2572 751 3078 Q 1150 3584 1784 3584 Q 2172 3584 2448 3432 Q 2725 3281 2906 2969 zM 947 1747 Q 947 1113 1208 752 Q 1469 391 1925 391 Q 2381 391 2643 752 Q 2906 1113 2906 1747 Q 2906 2381 2643 2742 Q 2381 3103 1925 3103 Q 1469 3103 1208 2742 Q 947 2381 947 1747 z" transform="scale(0.015625)"/><path id="DejaVuSans-62" d="M 3116 1747 Q 3116 2381 2855 2742 Q 2594 3103 2138 3103 Q 1681 3103 1420 2742 Q 1159 2381 1159 1747 Q 1159 1113 1420 752 Q 1681 391 2138 391 Q 2594 391 2855 752 Q 3116 1113 3116 1747 zM 1159 2969 Q 1341 3281 1617 3432 Q 1894 3584 2278 3584 Q 2916 3584 3314 3078 Q 3713 2572 3713 1747 Q 3713 922 3314 415 Q 2916 -91 2278 -91 Q 1894 -91 1617 61 Q 1341 213 1159 525 L 1159 0 L 581 0 L 581 4863 L 1159 4863 L 1159 2969 z" transform="scale(0.015625)"/></defs><use xlink:href="#DejaVuSans-4a"/><use x="29.492" xlink:href="#DejaVuSans-61"/><use x="90.771" xlink:href="#DejaVuSans-72"/><use x="129.635" xlink:href="#DejaVuSans-6f"/><use x="190.816" xlink:href="#DejaVuSans-20"/><use x="222.604" xlink:href="#DejaVuSans-73"/><use x="274.703" xlink:href="#DejaVuSans-69"/><use x="302.486" xlink:href="#DejaVuSans-6d"/><use x="399.898" xlink:href="#DejaVuSans-69"/><use x="427.682" xlink:href="#DejaVuSans-6c"/><use x="455.465" xlink:href="#DejaVuSans-61"/><use x="516.744" xlink:href="#DejaVuSans-72"/><use x="557.857" xlink:href="#DejaVuSans-69"/><use x="585.641" xlink:href="#DejaVuSans-74"/><use x="624.85" xlink:href="#DejaVuSans-79"/><use x="684.029" xlink:href="#DejaVuSans-20"/><use x="715.816" xlink:href="#DejaVuSans-69"/><use x="743.6" xlink:href="#DejaVuSans-6e"/><use x="806.979" xlink:href="#DejaVuSans-20"/><use x="838.766" xlink:href="#DejaVuSans-64"/><use x="902.242" xlink:href="#DejaVuSans-69"/><use x="930.025" xlink:href="#DejaVuSans-66"/><use x="965.23" xlink:href="#DejaVuSans-66"/><use x="1000.436" xlink:href="#DejaVuSans-65"/><use x="1061.959" xlink:href="#DejaVuSans-72"/><use x="1100.822" xlink:href="#DejaVuSans-65"/><use x="1162.346" xlink:href="#DejaVuSans-6e"/><use x="1225.725" xlink:href="#DejaVuSans-74"/><use x="1264.934" xlink:href="#DejaVuSans-20"/><use x="1296.721" xlink:href="#DejaVuSans-6c"/><use x="1324.504" xlink:href="#DejaVuSans-69"/><use x="1352.287" xlink:href="#DejaVuSans-62"/><use x="1415.764" xlink:href="#DejaVuSans-72"/><use x="1456.877" xlink:href="#DejaVuSans-61"/><use x="1518.156" xlink:href="#DejaVuSans-72"/><use x="1559.27" xlink:href="#DejaVuSans-69"/><use x="1587.053" xlink:href="#DejaVuSans-65"/><use x="1648.576" xlink:href="#DejaVuSans-73"/></g></g><g id="legend_1"><g id="patch_7"><path d="M 329.65125 78.82825 L 407.72 78.82825 Q 409.72 78.82825 409.72 76.82825 L 409.72 48.472 Q 409.72 46.472 407.72 46.472 L 329.65125 46.472 Q 327.65125 46.472 327.65125 48.472 L 327.65125 76.82825 Q 327.65125 78.82825 329.65125 78.82825 z" style="fill:#fff;opacity:.8;stroke:#ccc;stroke-linejoin:miter"/></g><g id="line2d_25"><path d="M 331.65125 54.570437 L 341.65125 54.570437 L 351.65125 54.570437" style="fill:none;stroke:#1f77b4;stroke-width:1.5;stroke-linecap:square"/></g><g id="text_15"><g transform="translate(359.65125 58.070437) scale(0.1 -0.1)"><defs><path id="DejaVuSans-7a" d="M 353 3500 L 3084 3500 L 3084 2975 L 922 459 L 3084 459 L 3084 0 L 275 0 L 275 525 L 2438 3041 L 353 3041 L 353 3500 z" transform="scale(0.015625)"/></defs><use xlink:href="#DejaVuSans-72"/><use x="41.113" xlink:href="#DejaVuSans-61"/><use x="102.393" xlink:href="#DejaVuSans-70"/><use x="165.869" xlink:href="#DejaVuSans-69"/><use x="193.652" xlink:href="#DejaVuSans-64"/><use x="257.129" xlink:href="#DejaVuSans-66"/><use x="292.334" xlink:href="#DejaVuSans-75"/><use x="355.713" xlink:href="#DejaVuSans-7a"/><use x="408.203" xlink:href="#DejaVuSans-7a"/></g></g><g id="line2d_26"><path d="M 331.65125 69.248562 L 341.65125 69.248562 L 351.65125 69.248562" style="fill:none;stroke:#ff7f0e;stroke-width:1.5;stroke-linecap:square"/></g><g id="text_16"><g transform="translate(359.65125 72.748562) scale(0.1 -0.1)"><defs><path id="DejaVuSans-6a" d="M 603 3500 L 1178 3500 L 1178 -63 Q 1178 -731 923 -1031 Q 669 -1331 103 -1331 L -116 -1331 L -116 -844 L 38 -844 Q 366 -844 484 -692 Q 603 -541 603 -63 L 603 3500 zM 603 4863 L 1178 4863 L 1178 4134 L 603 4134 L 603 4863 z" transform="scale(0.015625)"/></defs><use xlink:href="#DejaVuSans-6a"/><use x="27.783" xlink:href="#DejaVuSans-65"/><use x="89.307" xlink:href="#DejaVuSans-6c"/><use x="117.09" xlink:href="#DejaVuSans-6c"/><use x="144.873" xlink:href="#DejaVuSans-79"/><use x="204.053" xlink:href="#DejaVuSans-66"/><use x="239.258" xlink:href="#DejaVuSans-69"/><use x="267.041" xlink:href="#DejaVuSans-73"/><use x="319.141" xlink:href="#DejaVuSans-68"/></g></g></g></g></g><defs><clipPath id="p25baeb44e5"><rect width="357.12" height="266.112" x="57.6" y="41.472"/></clipPath></defs></svg>